# xmcd
#
# Track frame offsets:
#	150
#	9968
#	20065
#	33401
#	47009
#	59071
#	70188
#	82234
#	94372
#	105903
#	117461
#	129728
#	139604
#	153396
#	167251
#	181359
#
# Disc length: 2581 seconds
# Revision: 0
# Processed by: cddbd v1.5.2PL0 Copyright (c) Steve Scherf et al.
# Submitted via: dBpowerAMP V12.0
#
DISCID=d70a1310
DTITLE=Loretta Lynn - Complete Original #1 Hits
DYEAR=1966
DGENRE=Country
TTITLE0=Don't Come Home A-Drinkin' (With Lovin' On Your Mind)
TTITLE1=Fist City
TTITLE2=Woman Of The World (Leave My World Alone)
TTITLE3=Coal Miner's Daughter
TTITLE4=After The Fire Is Gone (with Conway Twitty)
TTITLE5=Lead Me On (with Conway Twitty)
TTITLE6=One's On The Way
TTITLE7=Rated "X"
TTITLE8=Love Is The Foundation
TTITLE9=Louisiana Woman, Mississippi Man (with Conway Twitty)
TTITLE10=As Soon As I Hang Up The Phone (with Conway Twitty)
TTITLE11=Trouble In Paradise
TTITLE12=Feelins' (with Conway Twitty)
TTITLE13=Somebody Somewhere (Don't Know What He's Missing Tonight)
TTITLE14=She's Got You
TTITLE15=Out Of My Head And Back In My Bed
EXTD=
EXTT0=
EXTT1=
EXTT2=
EXTT3=
EXTT4=
EXTT5=
EXTT6=
EXTT7=
EXTT8=
EXTT9=
EXTT10=
EXTT11=
EXTT12=
EXTT13=
EXTT14=
EXTT15=
PLAYORDER=
